<svg width="15" height="15" viewBox="0 0 15 15" fill="none" xmlns="http://www.w3.org/2000/svg">
<g clip-path="url(#clip0_1_1338)">
<path d="M12.1875 7.03125V4.21875" stroke="#1D1C1C" stroke-linecap="round" stroke-linejoin="round"/>
<path d="M13.5938 5.625H10.7812" stroke="#1D1C1C" stroke-linecap="round" stroke-linejoin="round"/>
<path d="M9.375 1.875V3.75" stroke="#1D1C1C" stroke-linecap="round" stroke-linejoin="round"/>
<path d="M10.3125 2.8125H8.4375" stroke="#1D1C1C" stroke-linecap="round" stroke-linejoin="round"/>
<path d="M12.3451 9.26836C11.9843 9.33932 11.6176 9.37504 11.2499 9.375C10.4186 9.37431 9.59771 9.18949 8.84628 8.83384C8.09484 8.47818 7.4315 7.96052 6.9039 7.31803C6.37631 6.67554 5.99756 5.92417 5.79486 5.11791C5.59217 4.31164 5.57056 3.47049 5.73159 2.65488C4.91795 2.95242 4.19239 3.45016 3.62192 4.10215C3.05145 4.75414 2.65444 5.53935 2.46757 6.38529C2.2807 7.23123 2.30999 8.11061 2.55273 8.94224C2.79547 9.77387 3.24383 10.5309 3.85642 11.1435C4.46901 11.7561 5.22607 12.2045 6.0577 12.4472C6.88933 12.69 7.76872 12.7192 8.61466 12.5324C9.4606 12.3455 10.2458 11.9485 10.8978 11.378C11.5498 10.8076 12.0475 10.082 12.3451 9.26836Z" stroke="#1D1C1C" stroke-linecap="round" stroke-linejoin="round"/>
</g>
<defs>
<clipPath id="clip0_1_1338">
<rect width="15" height="15" fill="white"/>
</clipPath>
</defs>
</svg>
