<svg width="20" height="20" viewBox="0 0 20 20" fill="none" xmlns="http://www.w3.org/2000/svg">
<g clip-path="url(#clip0_1_1351)">
<path d="M9.99995 14.7727L14.275 17.4016C14.3859 17.4689 14.5143 17.5018 14.6439 17.4962C14.7735 17.4906 14.8986 17.4467 15.0033 17.37C15.108 17.2933 15.1876 17.1874 15.232 17.0655C15.2765 16.9436 15.2838 16.8112 15.2531 16.6852L14.0906 11.7797L17.8953 8.49844C17.9923 8.41326 18.0622 8.30154 18.0964 8.17707C18.1307 8.0526 18.1277 7.92082 18.0879 7.79802C18.0481 7.67521 17.9732 7.56675 17.8725 7.48602C17.7717 7.40529 17.6496 7.35583 17.521 7.34375L12.5281 6.9375L10.6046 2.28125C10.5556 2.16112 10.4719 2.05832 10.3642 1.98596C10.2565 1.9136 10.1297 1.87495 9.99995 1.87495C9.8702 1.87495 9.7434 1.9136 9.6357 1.98596C9.528 2.05832 9.4443 2.16112 9.39527 2.28125L7.47183 6.9375L2.47886 7.34375C2.34946 7.35511 2.22627 7.40435 2.1247 7.48532C2.02312 7.56629 1.94765 7.6754 1.90773 7.79901C1.8678 7.92262 1.86518 8.05526 1.90021 8.18035C1.93523 8.30544 2.00633 8.41743 2.10464 8.50234L5.90933 11.7836L4.74683 16.6852C4.7161 16.8112 4.72342 16.9436 4.76789 17.0655C4.81235 17.1874 4.89195 17.2933 4.99663 17.37C5.10132 17.4467 5.22638 17.4906 5.35601 17.4962C5.48565 17.5018 5.61404 17.4689 5.72495 17.4016L9.99995 14.7727Z" stroke="white" stroke-width="1.5" stroke-linecap="round" stroke-linejoin="round"/>
</g>
<defs>
<clipPath id="clip0_1_1351">
<rect width="20" height="20" fill="white"/>
</clipPath>
</defs>
</svg>
