<svg width="25" height="25" viewBox="0 0 25 25" fill="none" xmlns="http://www.w3.org/2000/svg">
<circle cx="12.5" cy="12.5" r="12.5" fill="#EB7F00"/>
<path fill-rule="evenodd" clip-rule="evenodd" d="M16.3328 8.54692C16.2628 8.57317 14.5114 9.25685 12.4407 10.0662C10.37 10.8756 8.39416 11.6478 8.04994 11.7822C7.34106 12.0591 7.21012 12.1211 7.10191 12.2316C6.93916 12.3976 6.98618 12.57 7.22851 12.6957C7.26078 12.7125 7.70523 12.8583 8.21619 13.0197C8.72714 13.1811 9.25609 13.3489 9.3916 13.3926L9.63804 13.4719L10.5596 12.8824C13.521 10.9882 14.9842 10.0601 15.0415 10.0397C15.1315 10.0077 15.2095 10.0109 15.2458 10.0479C15.2713 10.0739 15.2724 10.087 15.2521 10.1252C15.2357 10.1562 11.282 13.7981 10.9386 14.0986C10.9353 14.1015 10.8981 14.6055 10.856 15.2188C10.8138 15.832 10.7766 16.3684 10.7732 16.4107L10.7671 16.4877L10.8558 16.4754C10.9046 16.4687 10.9818 16.4431 11.0274 16.4184C11.0729 16.3938 11.3796 16.1103 11.7088 15.7885C12.0381 15.4666 12.319 15.1988 12.3331 15.1933C12.3472 15.1878 12.8713 15.5667 13.4978 16.0353C14.1243 16.504 14.6862 16.9106 14.7465 16.939C14.9023 17.0123 15.0703 17.0209 15.1899 16.9618C15.304 16.9054 15.4142 16.7405 15.4588 16.5592C15.4759 16.49 15.6181 15.8181 15.7749 15.0662C15.9316 14.3143 16.0859 13.5778 16.1178 13.4296C16.1496 13.2814 16.2457 12.8234 16.3312 12.4117C16.4167 12.0001 16.6036 11.1109 16.7464 10.4358C16.9764 9.34888 17.0062 9.18655 17.0063 9.01866C17.0065 8.85467 16.9998 8.81555 16.9568 8.72925C16.9264 8.66837 16.8746 8.60622 16.824 8.5699C16.7082 8.48682 16.5167 8.47786 16.3328 8.54692Z" fill="#1B1B1B"/>
</svg>
