<svg width="25" height="25" viewBox="0 0 25 25" fill="none" xmlns="http://www.w3.org/2000/svg">
<circle cx="12.5" cy="12.5" r="12.5" fill="#EB7F00"/>
<path d="M6.19601 18.797L7.08894 15.5158C6.50057 14.5072 6.19145 13.3601 6.19337 12.1924C6.19337 8.54474 9.15022 5.58789 12.7979 5.58789C16.4456 5.58789 19.4024 8.54474 19.4024 12.1924C19.4024 15.8401 16.4456 18.797 12.7979 18.797C11.6307 18.7988 10.4841 18.49 9.47582 17.902L6.19601 18.797ZM10.4143 9.09358C10.329 9.09887 10.2457 9.12134 10.1693 9.15962C10.0977 9.20019 10.0323 9.25091 9.97512 9.31021C9.89587 9.38484 9.85096 9.44956 9.80275 9.5123C9.55865 9.82998 9.42735 10.2199 9.42959 10.6205C9.43091 10.9442 9.51545 11.2592 9.64754 11.5538C9.91766 12.1495 10.3621 12.7802 10.9493 13.3647C11.0906 13.5054 11.2287 13.6467 11.3773 13.7782C12.106 14.4198 12.9744 14.8825 13.9134 15.1295L14.2892 15.1869C14.4114 15.1935 14.5336 15.1843 14.6564 15.1783C14.8488 15.1684 15.0366 15.1163 15.2066 15.0258C15.3162 14.9676 15.3677 14.9386 15.4595 14.8805C15.4595 14.8805 15.4879 14.862 15.5421 14.821C15.6312 14.755 15.6861 14.7081 15.76 14.6308C15.8149 14.574 15.8624 14.5073 15.8987 14.4314C15.9502 14.3237 16.0018 14.1183 16.0229 13.9472C16.0387 13.8165 16.0341 13.7451 16.0321 13.7009C16.0295 13.6302 15.9707 13.5569 15.9067 13.5259L15.5223 13.3535C15.5223 13.3535 14.9477 13.1032 14.597 12.9434C14.56 12.9272 14.5204 12.9181 14.4801 12.9163C14.4349 12.9116 14.3892 12.9167 14.3462 12.9312C14.3031 12.9457 14.2636 12.9692 14.2304 13.0002V12.9988C14.2271 12.9988 14.1829 13.0365 13.7054 13.615C13.678 13.6519 13.6402 13.6797 13.5969 13.695C13.5536 13.7103 13.5068 13.7123 13.4623 13.7009C13.4193 13.6894 13.3771 13.6748 13.3362 13.6573C13.2543 13.623 13.2259 13.6098 13.1697 13.5853L13.1664 13.584C12.7886 13.419 12.4388 13.1962 12.1295 12.9235C12.0463 12.8509 11.969 12.7716 11.8898 12.695C11.6299 12.4462 11.4035 12.1647 11.2161 11.8576L11.1771 11.7948C11.1492 11.7527 11.1265 11.7072 11.1098 11.6594C11.0847 11.5624 11.1501 11.4844 11.1501 11.4844C11.1501 11.4844 11.3106 11.3087 11.3852 11.2136C11.4473 11.1346 11.5053 11.0524 11.5589 10.9673C11.6368 10.8418 11.6613 10.713 11.6203 10.6133C11.4354 10.1615 11.2439 9.71176 11.047 9.26529C11.0081 9.17679 10.8925 9.11339 10.7875 9.10084C10.7518 9.09688 10.7162 9.09292 10.6805 9.09027C10.5918 9.08587 10.5029 9.08741 10.4143 9.09358Z" fill="#1B1B1B"/>
</svg>
